@startuml

class "::items::Abc3" as item_0 {
    {field} + int field
    {method} + void callfunc3() 
    {method} + bool callfunc4() 
    {method} + bool callfunc5() const
    {method} + int * callfunc6_ptr1() 
    {method} + int const * callfunc6_ptr2() 
    {method} + int & callfunc6_ref() 
    {method} + int const & callfunc6_ref2() 
}
class "::items::Abc2" as item_1 {
    {method} +virt void callfunc2() 
}
class "::items::Abc1" as item_2 {
    {method} +  Abc1() 
    {method} +virt void callfunc1() 
    {method} +virt void callfunc2() =0
}

' ::items::Abc3 --|> ::items::Abc2
item_0 --|> item_1: "pub"
' ::items::Abc2 --|> ::items::Abc1
item_1 --|> item_2: "pub"

@enduml
