@startuml

class "::[anonymous]::AnonNSItem" as @16 {
    {field} + int data
}
class "::membersns::SubClass" as @57 {
    {field} {static} # int const staticField
    {method} +virt int * virtFn() 
    {method} #virt void virtPureFn() 
    {method} +virt  ~SubClass() =default
}
class "::templatens::TemplInheritDouble" as @71 {
    {field} + bool dataA
}
class "::membersns::BaseClass" as @74 {
    {field} + __vtbl_ptr_type * _vptr.BaseClass
    {field} + bool publicFieldA
    {field} + bool protectedFieldB
    {field} - int privateFieldC
    {method} +  BaseClass() =default
    {method} +virt  ~BaseClass() =default
    {method} + int regularFn(int paramA, bool /*anonym*/) 
    {method} +virt int * virtFn() 
    {method} {static} + void staticFn(double const paramA) 
    {method} {abstract} #virt void virtPureFn() =0
}
class "::templatens::TemplInherit" as @94 {
    {field} + int8_t fieldA :3
}
class "::templatens::AbcTempl<int, int>" as @89 {
    {field} + int field1
    {field} + bool field2
    {field} + int field3
}
class "::templatens::AbcTempl<double, double>" as @90 {
    {field} + double field1
    {field} + bool field2
    {field} + double field3
}
class "::templatens::AbcTempl<TTypeA, TTypeB>" as @125 <<T,#FF7700>> {
    {field} + TTypeA field1
    {field} + bool field2
    {field} + TTypeB field3
}
class "::diamondns::Cbc1" as @187 {
    {field} + int fieldD1
    {field} + int8_t fieldD2 :5
    {field} + mutable uint8_t fieldD3 :5
}
class "::templatens::AbcTempl<int, bool>" as @121 {
    {field} + int field1
    {field} + bool field2
    {field} + bool field3
}
class "::diamondns::Bbc2" as @231 {
    {field} + __vtbl_ptr_type * _vptr.Bbc2
    {field} + char fieldC
}
class "::diamondns::Bbc1" as @230 {
    {field} + __vtbl_ptr_type * _vptr.Bbc1
    {field} + bool fieldB
}
class "::diamondns::Abc1" as @272 {
    {field} + int fieldA
}

' ::membersns::SubClass --|> ::membersns::BaseClass
"@57" --|> "@74": "pub"
' ::templatens::TemplInheritDouble --|> ::templatens::AbcTempl<int, int>
"@71" --|> "@89": "pub"
' ::templatens::TemplInheritDouble --|> ::templatens::AbcTempl<double, double>
"@71" --|> "@90": "pub"
' ::templatens::TemplInherit --|> ::templatens::AbcTempl<int, bool>
"@94" --|> "@121": "pub"
' ::templatens::AbcTempl<int, int> ..> ::templatens::AbcTempl: spec.
"@89" ..> "@125": spec.
' ::templatens::AbcTempl<double, double> ..> ::templatens::AbcTempl: spec.
"@90" ..> "@125": spec.
' ::diamondns::Cbc1 --|> ::diamondns::Bbc1
"@187" --|> "@230": "pub"
' ::diamondns::Cbc1 --|> ::diamondns::Bbc2
"@187" --|> "@231": "pub"
' ::templatens::AbcTempl<int, bool> ..> ::templatens::AbcTempl: spec.
"@121" ..> "@125": spec.
' ::diamondns::Bbc2 --|> ::diamondns::Abc1
"@231" --|> "@272": "virt pub"
' ::diamondns::Bbc1 --|> ::diamondns::Abc1
"@230" --|> "@272": "virt pub"

@enduml
